<svg width="284" height="137" viewBox="0 0 284 137" fill="none" xmlns="http://www.w3.org/2000/svg"><path d="M18.76 8.08c3.46-1.63 6.48-2.64 9.07-3.02a42.62 42.62 0 0 1 15.55 0c2.6.38 5.43 1.3 8.5 2.73 3.17 1.35 6 3.12 8.5 5.33 2.5 2.11 4.7 5.09 6.62 8.93a36.06 36.06 0 0 1 3.6 13.1c0 2.11-.96 3.17-2.88 3.17h-1.3c-1.72 0-2.68-.86-2.88-2.6a32.18 32.18 0 0 0-3.02-10.65c-1.54-3.07-3.31-5.42-5.33-7.05a27.23 27.23 0 0 0-6.91-4.04 27.71 27.71 0 0 0-10.8-2.44c-3.26 0-6 .19-8.2.57a30.4 30.4 0 0 0-7.2 2.45 23.12 23.12 0 0 0-7.06 5.04c-2.02 2.02-3.75 4.9-5.19 8.64A38.27 38.27 0 0 0 7.82 41.2v28.22c0 4.9.72 9.22 2.16 12.96 1.44 3.75 3.16 6.68 5.18 8.79a24.43 24.43 0 0 0 7.06 4.9 32.76 32.76 0 0 0 7.34 2.44c2.11.39 4.22.58 6.34.58 2.1 0 4.22-.15 6.33-.43a34.17 34.17 0 0 0 7.2-2.3 26.03 26.03 0 0 0 7.06-4.76c2.01-2.02 3.7-4.8 5.04-8.35 1.44-3.55 2.16-7.68 2.16-12.39v-8.35H39.93c-1.92 0-2.88-.96-2.88-2.88v-1.3c0-.76.24-1.43.72-2.01.57-.58 1.3-.86 2.16-.86h25.05c3.84 0 5.76 2.06 5.76 6.19V71c0 5.85-.9 11.04-2.73 15.55-1.73 4.42-3.84 7.82-6.34 10.22a29.04 29.04 0 0 1-8.78 5.76 41.88 41.88 0 0 1-17 3.6c-6.14 0-11.42-1.05-15.83-3.16-4.32-2.12-7.78-4.42-10.37-6.92-2.5-2.5-4.61-6-6.34-10.5C1.62 80.93.76 75.7.76 69.85V40.62c0-6.04.86-11.37 2.6-15.98 1.82-4.6 3.98-8.11 6.47-10.51 2.6-2.5 5.57-4.51 8.93-6.05Zm95.62 25.63c7.2 0 12.72 1.92 16.56 5.76 3.84 3.75 5.76 9.27 5.76 16.56v47.09c0 1.92-.9 2.88-2.73 2.88h-1.15c-1.92 0-2.88-.96-2.88-2.88v-45.5c0-11.43-5.24-17.14-15.7-17.14-5.47 0-10.13 2.16-13.97 6.48-1.05.86-1.97 1.3-2.73 1.3-1.73 0-2.64-.96-2.74-2.88 0-.77.2-1.54.58-2.3a22.38 22.38 0 0 1 8.06-6.78c3.36-1.72 7-2.59 10.94-2.59Zm-24.33.43h1.15c.77 0 1.44.3 2.02.87.57.48.86 1.15.86 2.01v66.1c0 .86-.29 1.58-.86 2.16-.58.48-1.25.72-2.02.72h-1.15c-.77 0-1.44-.24-2.02-.72a2.93 2.93 0 0 1-.86-2.16v-66.1c0-.86.29-1.53.86-2.01a2.76 2.76 0 0 1 2.02-.87Zm70.63-.28h2.45c1.15 0 1.92.24 2.3.72.39.48.58 1.2.58 2.16v66.38c0 .86-.29 1.58-.86 2.16-.58.48-1.25.72-2.02.72h-2.45c-.77 0-1.44-.24-2.01-.72a2.93 2.93 0 0 1-.87-2.16V36.74c0-1.25.24-2.02.72-2.3.58-.4 1.3-.58 2.16-.58Zm-5.61-31.97c.96-.87 3.16-1.3 6.62-1.3s5.71.48 6.77 1.44c1.05.87 1.58 2.74 1.58 5.62v1.87c0 3.26-.53 5.33-1.58 6.2-1.06.86-3.31 1.29-6.77 1.29-3.46 0-5.66-.43-6.62-1.3-.96-.86-1.44-2.93-1.44-6.19V7.65c0-3.07.48-5 1.44-5.76ZM165 8.08c0-.96-.24-1.58-.72-1.87-.38-.39-1.25-.58-2.59-.58-1.25 0-2.06.15-2.45.43-.38.3-.57.96-.57 2.02v1.44c0 1.06.19 1.73.57 2.02.39.28 1.25.43 2.6.43 1.34 0 2.2-.15 2.59-.43.38-.3.57-.96.57-2.02V8.08Zm22.77 44.78c0-5.47 1.82-10.03 5.47-13.68 3.75-3.64 9.26-5.47 16.56-5.47 7.4 0 13.06 1.83 17 5.47 3.93 3.56 5.9 8.84 5.9 15.84 0 .77-.3 1.44-.87 2.02-.48.48-1.1.72-1.87.72h-1.3c-.76 0-1.44-.24-2.01-.72a2.87 2.87 0 0 1-.72-1.87c0-9.7-5.43-14.55-16.27-14.55-5 0-8.79 1.2-11.38 3.6a12.05 12.05 0 0 0-3.74 9.08c0 3.64 1.2 6.57 3.6 8.78 2.5 2.11 7.15 3.84 13.97 5.18 6.81 1.35 12.14 3.46 15.98 6.34s5.76 7.2 5.76 12.96a18.5 18.5 0 0 1-6.34 14.26c-4.13 3.74-9.93 5.61-17.42 5.61-7.4 0-13.4-1.87-18-5.61-4.6-3.84-6.91-9.46-6.91-16.85 0-2.02.96-3.03 2.88-3.03h1.15c1.82 0 2.73.96 2.73 2.88 0 10.47 6.2 15.7 18.58 15.7 5.57 0 9.7-1.25 12.38-3.74a12.49 12.49 0 0 0 4.18-9.5c0-3.75-1.44-6.44-4.32-8.07-2.88-1.73-7.92-3.36-15.12-4.9-7.1-1.53-12.2-3.98-15.26-7.34-3.07-3.36-4.61-7.73-4.61-13.1Zm71-51.98h1.15c1.83 0 2.74.91 2.74 2.74l-.43 80.2c.1 4.9 1.44 8.7 4.03 11.38 2.69 2.69 6.2 4.03 10.51 4.03h3.6c.77 0 1.4.29 1.87.87.58.57.87 1.2.87 1.87v1.15c0 1.92-2.16 2.88-6.48 2.88-6.34 0-11.43-1.92-15.27-5.76-3.84-3.94-5.8-9.36-5.9-16.27l.43-80.35c.2-1.83 1.15-2.74 2.88-2.74ZM247.68 34h3.46c.86 0 1.54.29 2.02.86.57.58.86 1.25.86 2.02v.86c0 .77-.29 1.44-.86 2.02-.48.58-1.16.86-2.02.86h-3.46c-.86 0-1.58-.28-2.16-.86a3.05 3.05 0 0 1-.72-2.02v-.86c0-.77.24-1.44.72-2.02.58-.57 1.3-.86 2.16-.86Zm19.3 0h10.66c.76 0 1.39.29 1.87.86.57.58.86 1.25.86 2.02v.86c0 .77-.29 1.44-.86 2.02-.48.58-1.1.86-1.87.86h-10.66c-.77 0-1.44-.28-2.02-.86a2.76 2.76 0 0 1-.86-2.02v-.86c0-.77.29-1.44.86-2.02a2.76 2.76 0 0 1 2.02-.86ZM187.26 129.36v-2.45c0-1.15.24-1.92.72-2.3.48-.39 1.2-.58 2.16-.58h89.39c.86 0 1.58.29 2.16.87.48.57.72 1.24.72 2.01v2.45c0 .77-.24 1.44-.72 2.02-.58.57-1.3.86-2.16.86h-89.39c-1.24 0-2.01-.24-2.3-.72a3.81 3.81 0 0 1-.58-2.16Zm-31.96 5.62c-.87-.96-1.3-3.17-1.3-6.63 0-3.45.48-5.71 1.44-6.77.86-1.05 2.74-1.58 5.62-1.58h1.87c3.26 0 5.33.53 6.19 1.58.86 1.06 1.3 3.32 1.3 6.77 0 3.46-.44 5.67-1.3 6.63-.86.96-2.93 1.44-6.2 1.44h-1.86c-3.08 0-5-.48-5.76-1.44Zm6.19-9.94c-.96 0-1.59.24-1.87.72-.39.38-.58 1.25-.58 2.6 0 1.24.14 2.06.43 2.44.29.38.96.58 2.02.58h1.44c1.05 0 1.73-.2 2.01-.58.3-.38.44-1.25.44-2.6 0-1.34-.15-2.2-.44-2.58-.28-.39-.96-.58-2.01-.58h-1.44ZM3.26 126.91v2.45c0 .86.2 1.58.58 2.16.29.48 1.06.72 2.3.72h126.39c.86 0 1.58-.29 2.16-.86.48-.58.72-1.25.72-2.02v-2.45c0-.77-.24-1.44-.72-2.01a2.93 2.93 0 0 0-2.16-.87H6.14c-.96 0-1.68.2-2.16.58-.48.38-.72 1.15-.72 2.3Z" fill="#3B82F6"/></svg>